<?xml version="1.0" encoding="iso-8859-1"?>
<!-- Generator: Adobe Illustrator 19.0.0, SVG Export Plug-In . SVG Version: 6.00 Build 0)  -->
<svg version="1.1" id="Capa_1" xmlns="http://www.w3.org/2000/svg" xmlns:xlink="http://www.w3.org/1999/xlink" x="0px" y="0px"
	 viewBox="0 0 512 512" style="enable-background:new 0 0 512 512;" xml:space="preserve">
<path style="fill:#F7D88B;" d="M131.624,277.421c20.446-20.447,19.235-54.808-15.946-89.989
	c-32.469-32.469-75.743-40.015-99.144-41.596c-9.362-0.632-17.13,7.133-16.498,16.494c1.58,23.4,9.126,66.676,41.597,99.147
	c6.882,6.882,13.73,12.451,20.45,16.819c3.141,2.041,3.141,6.6,0,8.641c-6.72,4.368-13.568,9.938-20.45,16.819
	c-32.472,32.473-40.017,75.75-41.597,99.15c-0.632,9.36,7.135,17.123,16.495,16.491c23.4-1.58,66.676-9.126,99.147-41.597
	c35.181-35.181,36.392-69.542,15.946-89.989C128.75,284.938,128.75,280.294,131.624,277.421z"/>
<path style="fill:#F4CF7A;" d="M131.623,287.811c-0.685-0.685-1.121-1.954-1.32-3.388h-28.104
	c11.168,52.494-18.338,100.887-52.654,90.083c-21.314-6.711-23.254-40.371-11.359-67.15C8.632,339.359,1.56,380.347,0.036,402.895
	c-0.634,9.382,7.12,17.136,16.502,16.502c23.402-1.581,66.672-9.129,99.139-41.596C150.859,342.619,152.069,308.258,131.623,287.811
	z"/>
<g>
	<path style="fill:#EAC268;" d="M127.623,284.922c-1.964,0-3.924-0.766-5.396-2.29l-69.592-72.069
		c-2.877-2.98-2.794-7.728,0.185-10.605c2.981-2.878,7.728-2.794,10.605,0.185l69.592,72.069c2.877,2.98,2.794,7.728-0.185,10.605
		C131.376,284.222,129.499,284.922,127.623,284.922z"/>
	<path style="fill:#EAC268;" d="M58.029,367.38c-1.875,0-3.753-0.699-5.209-2.105c-2.979-2.877-3.063-7.625-0.185-10.605
		l69.592-72.069c2.876-2.978,7.625-3.062,10.605-0.185c2.979,2.877,3.062,7.625,0.185,10.605L63.425,365.09
		C61.954,366.614,59.993,367.38,58.029,367.38z"/>
</g>
<path style="fill:#F7D88B;" d="M427.168,165.407c-11.789-40.904-47.682-68.379-107.415-74.517
	c-88.726-9.117-183.849,11.268-111.324,81.263L427.168,165.407z"/>
<path style="fill:#EAC268;" d="M248.571,116.703c-3.782-1.692-8.218,0.001-9.91,3.782s0.001,8.217,3.782,9.91
	c15.715,7.034,26.284,18.276,31.411,33.414c1.059,3.126,3.976,5.096,7.103,5.096c0.798,0,1.609-0.128,2.407-0.398
	c3.923-1.329,6.026-5.586,4.697-9.509C281.54,139.742,268.254,125.513,248.571,116.703z M362.865,162.405
	c-1.769-13.182-17.238-38.668-32.104-48.517c-3.454-2.286-8.107-1.343-10.395,2.11s-1.344,8.107,2.109,10.395
	c10.608,7.028,24.267,28.652,25.522,38.006c0.506,3.767,3.726,6.504,7.424,6.504c0.332,0,0.669-0.022,1.007-0.067
	C360.534,170.285,363.415,166.511,362.865,162.405z"/>
<path style="fill:#F4CF7A;" d="M233.383,92.704c-47.829,8.835-72.657,33.41-24.954,79.45l57.859-1.785
	C235.754,153.293,221.949,107.403,233.383,92.704z"/>
<path style="fill:#F49E73;" d="M512,282.616c0,89.829-80.068,140.538-173.959,140.538c-119.577,0-200.612-59.955-234.138-124.484
	c-5.219-10.045-5.219-22.063,0-32.108c33.526-64.529,114.56-124.484,234.138-124.484C431.932,142.078,512,192.787,512,282.616z"/>
<g>
	<path style="fill:#EA8962;" d="M291.326,231.648c4.143,0,7.5-3.358,7.5-7.5s-3.357-7.5-7.5-7.5
		c-6.229,0-11.295-5.067-11.295-11.295s5.066-11.295,11.295-11.295c4.143,0,7.5-3.358,7.5-7.5s-3.357-7.5-7.5-7.5
		c-14.499,0-26.295,11.796-26.295,26.295c0,7.359,3.042,14.017,7.931,18.795c-4.888,4.777-7.931,11.436-7.931,18.794
		c0,14.499,11.796,26.295,26.295,26.295c4.143,0,7.5-3.358,7.5-7.5s-3.357-7.5-7.5-7.5c-6.229,0-11.295-5.067-11.295-11.295
		C280.031,236.715,285.097,231.648,291.326,231.648z"/>
	<path style="fill:#EA8962;" d="M224.606,269.237c4.142,0,7.5-3.358,7.5-7.5s-3.358-7.5-7.5-7.5
		c-6.228,0-11.295-5.067-11.295-11.295s5.067-11.294,11.295-11.294c4.142,0,7.5-3.358,7.5-7.5s-3.358-7.5-7.5-7.5
		c-14.499,0-26.295,11.795-26.295,26.294c0,7.359,3.042,14.018,7.931,18.795c-4.888,4.777-7.931,11.436-7.931,18.795
		c0,14.499,11.796,26.295,26.295,26.295c4.142,0,7.5-3.358,7.5-7.5s-3.358-7.5-7.5-7.5c-6.228,0-11.295-5.067-11.295-11.295
		S218.378,269.237,224.606,269.237z"/>
	<path style="fill:#EA8962;" d="M346.7,382.007c-14.499,0-26.295-11.796-26.295-26.295c0-14.499,11.796-26.295,26.295-26.295
		c4.143,0,7.5,3.358,7.5,7.5s-3.357,7.5-7.5,7.5c-6.228,0-11.295,5.067-11.295,11.295c0,6.228,5.066,11.295,11.295,11.295
		c4.143,0,7.5,3.358,7.5,7.5S350.842,382.007,346.7,382.007z"/>
</g>
<path style="fill:#EF9067;" d="M214.461,166.949c-52.822,23.441-90.335,60.692-110.557,99.614c-5.219,10.045-5.219,22.064,0,32.108
	c33.526,64.529,114.56,124.484,234.137,124.484c28.549,0,55.814-4.697,79.944-13.748C150.634,397.398,149,248.463,214.461,166.949z"
	/>
<path style="fill:#F7D88B;" d="M214.454,361.773c18.47,18.47,43.25,24.033,62.505,4.777c38.127-38.127,40.703-81.491,27.456-94.738
	c-13.248-13.247-56.612-10.671-94.738,27.456C190.421,318.523,195.984,343.303,214.454,361.773z"/>
<path style="fill:#EAC268;" d="M248.948,304.544c-2.928-2.929-7.677-2.929-10.606,0l-37.455,37.455
	c1.883,4.6,4.545,9.086,7.872,13.341l40.19-40.189C251.877,312.222,251.877,307.473,248.948,304.544z M271.683,327.279
	c-2.929-2.929-7.677-2.929-10.607,0l-40.189,40.189c4.255,3.327,8.741,5.989,13.341,7.872l37.456-37.455
	C274.612,334.956,274.612,330.207,271.683,327.279z"/>
<g>
	<ellipse style="fill:#F27281;" cx="356.44" cy="279.4" rx="22.01" ry="17.529"/>
	<ellipse style="fill:#F27281;" cx="475.75" cy="279.4" rx="22.01" ry="17.529"/>
</g>
<g>
	<path style="fill:#464D59;" d="M379.742,267.823c-4.143,0-7.5-3.358-7.5-7.5c0-1.642-1.335-2.978-2.977-2.978
		s-2.977,1.336-2.977,2.978c0,4.142-3.357,7.5-7.5,7.5s-7.5-3.358-7.5-7.5c0-9.913,8.064-17.978,17.977-17.978
		c9.912,0,17.977,8.064,17.977,17.978C387.242,264.466,383.884,267.823,379.742,267.823z"/>
	<path style="fill:#464D59;" d="M473.396,267.823c-4.143,0-7.5-3.358-7.5-7.5c0-1.642-1.336-2.978-2.978-2.978
		s-2.977,1.336-2.977,2.978c0,4.142-3.357,7.5-7.5,7.5s-7.5-3.358-7.5-7.5c0-9.913,8.064-17.978,17.977-17.978
		s17.978,8.064,17.978,17.978C480.896,264.466,477.539,267.823,473.396,267.823z"/>
	<path style="fill:#464D59;" d="M416.092,285.132c-6.428,0-12.539-2.783-16.769-7.635c-2.722-3.123-2.396-7.86,0.727-10.582
		c3.122-2.721,7.859-2.397,10.582,0.727c1.379,1.583,3.369,2.491,5.46,2.491c2.09,0,4.08-0.908,5.459-2.491
		c2.722-3.122,7.457-3.447,10.582-0.727c3.122,2.722,3.448,7.459,0.727,10.582C428.63,282.349,422.519,285.132,416.092,285.132z"/>
</g>
<g>
</g>
<g>
</g>
<g>
</g>
<g>
</g>
<g>
</g>
<g>
</g>
<g>
</g>
<g>
</g>
<g>
</g>
<g>
</g>
<g>
</g>
<g>
</g>
<g>
</g>
<g>
</g>
<g>
</g>
</svg>
