<?xml version="1.0"?>
<svg xmlns="http://www.w3.org/2000/svg" xmlns:xlink="http://www.w3.org/1999/xlink" version="1.1" id="Capa_1" x="0px" y="0px" viewBox="0 0 512 512" style="enable-background:new 0 0 512 512;" xml:space="preserve" width="512px" height="512px" class=""><g><g>
	<path style="fill:#DEF3EC" d="M256.016,502V92c0-45.287-36.713-82-82-82l0,0c-45.287,0-82,36.713-82,82v410H256.016z" data-original="#FCC69D" class="" data-old_color="##DEF3E"/>
	<path style="fill:#DEF3EC" d="M419.985,502V146c0-45.287-36.713-82-82-82l0,0c-45.287,0-82,36.713-82,82v356H419.985z" data-original="#FCC69D" class="" data-old_color="##DEF3E"/>
</g><path style="fill:#FFFFFF;" d="M369.264,204.333c0,17.305-14.028,31.333-31.333,31.333s-31.333-14.028-31.333-31.333  L369.264,204.333L369.264,204.333z" data-original="#FFFFFF" class=""/><path d="M92.015,492c-2.63,0-5.21,1.07-7.07,2.93s-2.93,4.44-2.93,7.07s1.07,5.21,2.93,7.07c1.86,1.86,4.44,2.93,7.07,2.93  s5.21-1.07,7.07-2.93s2.93-4.44,2.93-7.07s-1.07-5.21-2.93-7.07C97.225,493.07,94.645,492,92.015,492z" data-original="#000000" class="active-path" style="fill:#08A8B3" data-old_color="#08a8b3"/><path d="M337.985,54c-29.143,0-55.161,13.624-72.029,34.833C264.28,39.565,223.685,0,174.016,0c-50.729,0-92,41.271-92,92v371.085  c0,5.523,4.477,10,10,10s10-4.477,10-10V267.904l21.933,21.933v23.416c0,5.523,4.477,10,10,10c5.523,0,10-4.477,10-10v-3.416  l7.798,7.798c1.953,1.953,4.512,2.929,7.071,2.929c2.559,0,5.119-0.976,7.071-2.929c3.905-3.905,3.905-10.237,0-14.143l-7.798-7.798  h5.06c5.523,0,10-4.477,10-10s-4.477-10-10-10h-25.06l-36.076-36.076V92c0-39.701,32.299-72,72-72s72,32.299,72,72v51.599  c-0.021,0.798-0.031,1.598-0.031,2.401v315.917c0,0.209,0.019,0.413,0.031,0.619V502c0,5.523,4.477,10,10,10s10-4.477,10-10V144.768  C266.679,105.635,298.698,74,337.985,74c39.701,0,72,32.299,72,72v137.857l-35.273,35.273h-25.061c-5.523,0-10,4.477-10,10  s4.477,10,10,10h5.061l-7.798,7.798c-3.905,3.905-3.905,10.237,0,14.143c1.953,1.953,4.512,2.929,7.071,2.929  s5.119-0.976,7.071-2.929l7.798-7.798v3.415c0,5.523,4.477,10,10,10s10-4.477,10-10v-23.415l21.13-21.13V371c0,5.523,4.477,10,10,10  s10-4.477,10-10V146C429.985,95.271,388.714,54,337.985,54z" data-original="#000000" class="active-path" style="fill:#08A8B3" data-old_color="#08a8b3"/><path d="M419.985,401c-2.63,0-5.21,1.07-7.07,2.93c-1.86,1.86-2.93,4.44-2.93,7.07s1.07,5.21,2.93,7.07  c1.86,1.86,4.44,2.93,7.07,2.93s5.21-1.07,7.07-2.93s2.93-4.44,2.93-7.07s-1.07-5.21-2.93-7.07  C425.195,402.07,422.615,401,419.985,401z" data-original="#000000" class="active-path" style="fill:#08A8B3" data-old_color="#08a8b3"/><path d="M419.985,440.931c-5.523,0-10,4.477-10,10V502c0,5.523,4.477,10,10,10s10-4.477,10-10v-51.069  C429.985,445.408,425.508,440.931,419.985,440.931z" data-original="#000000" class="active-path" style="fill:#08A8B3" data-old_color="#08a8b3"/><path d="M151.965,105.84c0-2.63-1.07-5.21-2.93-7.07c-1.86-1.87-4.44-2.93-7.07-2.93s-5.21,1.06-7.07,2.93  c-1.86,1.86-2.93,4.43-2.93,7.07c0,2.63,1.07,5.21,2.93,7.07c1.86,1.86,4.44,2.93,7.07,2.93s5.21-1.07,7.07-2.93  C150.895,111.05,151.965,108.47,151.965,105.84z" data-original="#000000" class="active-path" style="fill:#08A8B3" data-old_color="#08a8b3"/><path d="M206.175,95.84c-2.63,0-5.21,1.06-7.07,2.93c-1.86,1.86-2.93,4.43-2.93,7.07c0,2.63,1.07,5.21,2.93,7.07  s4.44,2.93,7.07,2.93s5.21-1.07,7.07-2.93c1.86-1.86,2.93-4.44,2.93-7.07c0-2.64-1.07-5.21-2.93-7.07  C211.385,96.9,208.805,95.84,206.175,95.84z" data-original="#000000" class="active-path" style="fill:#08A8B3" data-old_color="#08a8b3"/><path d="M187.018,143.637c-7.139,7.14-18.757,7.14-25.896,0c-3.905-3.904-10.237-3.904-14.143,0c-3.905,3.905-3.905,10.237,0,14.143  c7.469,7.469,17.28,11.203,27.09,11.203s19.622-3.734,27.09-11.203c3.905-3.905,3.905-10.237,0-14.143  C197.256,139.732,190.924,139.732,187.018,143.637z" data-original="#000000" class="active-path" style="fill:#08A8B3" data-old_color="#08a8b3"/><path d="M379.264,204.333c0-5.523-4.477-10-10-10h-62.667c-5.523,0-10,4.477-10,10c0,22.791,18.542,41.333,41.333,41.333  S379.264,227.125,379.264,204.333z M337.931,225.667c-8.152,0-15.251-4.596-18.841-11.333h37.683  C353.182,221.07,346.083,225.667,337.931,225.667z" data-original="#000000" class="active-path" style="fill:#08A8B3" data-old_color="#08a8b3"/><path d="M305.825,166.56c1.781,0,3.455,0.693,4.714,1.953c1.953,1.953,4.512,2.929,7.071,2.929s5.119-0.976,7.071-2.929  c3.905-3.905,3.905-10.237,0-14.143c-10.397-10.396-27.315-10.396-37.713,0c-3.905,3.905-3.905,10.237,0,14.143  c3.905,3.905,10.237,3.905,14.143,0C302.37,167.253,304.044,166.56,305.825,166.56z" data-original="#000000" class="active-path" style="fill:#08A8B3" data-old_color="#08a8b3"/><path d="M364.551,168.512c1.259-1.259,2.933-1.953,4.714-1.953s3.455,0.693,4.714,1.953c1.953,1.953,4.512,2.929,7.071,2.929  s5.119-0.976,7.071-2.929c3.905-3.905,3.905-10.237,0-14.143c-10.397-10.396-27.315-10.396-37.713,0  c-3.905,3.905-3.905,10.237,0,14.143C354.313,172.417,360.645,172.417,364.551,168.512z" data-original="#000000" class="active-path" style="fill:#08A8B3" data-old_color="#08a8b3"/></g> </svg>
