<?xml version="1.0"?>
<svg xmlns="http://www.w3.org/2000/svg" height="512px" viewBox="-10 0 511 511.99992" width="512px" class=""><g transform="matrix(0.834514 0 0 0.834514 40.6268 42.3644)"><g fill="#ffc73b"><path d="m299.753906 512c-4.265625 0-7.71875-3.457031-7.71875-7.71875v-44.53125c0-4.261719 3.453125-7.714844 7.71875-7.714844 4.261719 0 7.714844 3.453125 7.714844 7.714844v44.53125c0 4.261719-3.453125 7.71875-7.714844 7.71875zm0 0" data-original="#000000"/><path d="m323.421875 512c-4.261719 0-7.71875-3.457031-7.71875-7.71875v-44.53125c0-4.261719 3.457031-7.714844 7.71875-7.714844 4.265625 0 7.71875 3.453125 7.71875 7.714844v44.53125c0 4.261719-3.453125 7.71875-7.71875 7.71875zm0 0" data-original="#000000"/><path d="m367.675781 512h-93.652343c-4.261719 0-7.71875-3.457031-7.71875-7.71875s3.457031-7.71875 7.71875-7.71875h93.652343c4.261719 0 7.71875 3.457031 7.71875 7.71875s-3.457031 7.71875-7.71875 7.71875zm0 0" data-original="#000000"/></g><path d="m453.761719 171.117188c-10.996094 0-19.914063-8.914063-19.914063-19.914063v-75.394531h39.828125v75.394531c0 11-8.914062 19.914063-19.914062 19.914063zm0 0" fill="#ff4440" data-original="#FF4440" class=""/><path d="m1.339844 292.078125c-4.371094 20.570313 8.761718 40.789063 29.335937 45.160156l168.113281 35.707031 15.824219-74.492187-168.117187-35.710937c-20.570313-4.367188-40.789063 8.765624-45.15625 29.335937zm0 0" fill="#ff4440" data-original="#FF4440" class=""/><path d="m25.0625 200.488281c-12.832031 16.65625-9.734375 40.566407 6.925781 53.402344l136.144531 104.890625 46.480469-60.328125-136.148437-104.890625c-16.65625-12.835938-40.566406-9.734375-53.402344 6.925781zm0 0" fill="#777575" data-original="#777575"/><path d="m85.472656 128.605469c-18.746094 9.535156-26.207031 32.460937-16.671875 51.203125l77.933594 153.179687 67.878906-34.535156-77.9375-153.179687c-9.535156-18.742188-32.460937-26.207032-51.203125-16.667969zm0 0" fill="#ff4440" data-original="#FF4440" class=""/><path d="m176.535156 88.507812c-21.03125 0-38.078125 17.050782-38.078125 38.078126v171.867187h76.15625v-171.867187c0-21.027344-17.050781-38.078126-38.078125-38.078126zm0 0" fill="#777575" data-original="#777575"/><path d="m433.847656 80.957031h58.355469c0-44.707031-36.246094-80.95312475-80.953125-80.95312475h-58.363281" fill="#ffc73b" data-original="#FFC73B"/><path d="m461.050781 298.535156c-.042969 89.464844-73.59375 162.160156-163.046875 161.203125-4.609375-.050781-9.179687-.285156-13.699218-.71875 0-.011719-.007813-.011719-.007813-.011719-38.65625-3.664062-73.335937-20.972656-99.167969-47.070312-28.859375-29.148438-46.671875-69.230469-46.671875-113.484375 72.277344 0 133.4375-47.535156 153.949219-113.039063 6.523438-20.832031 3.179688-43.308593-8.335938-61.839843-7.6875-12.371094-12.132812-26.976563-12.132812-42.617188 0-45.375 37.34375-82.042969 82.976562-80.9335935 3.191407.0820315 6.339844.3398435 9.425782.7929685 38.441406 5.496094 68.4375 38.324219 69.480468 77.976563.957032 36.660156-22.476562 67.964843-55.226562 78.925781 49.226562 27.644531 82.488281 80.34375 82.457031 140.816406zm0 0" fill="#939090" data-original="#939090"/><path d="m312.101562 85.699219c11.320313 44.253906 28.816407 67.925781 11.320313 121.4375-17.492187 53.515625-182.195313 163.375-39.125 251.871093-38.65625-3.664062-73.335937-20.972656-99.167969-47.070312-28.859375-29.148438-46.671875-69.230469-46.671875-113.484375 72.277344 0 133.4375-47.535156 153.949219-113.039063 6.523438-20.832031 3.179688-43.308593-8.335938-61.839843-7.6875-12.371094-12.132812-26.976563-12.132812-42.617188 0-45.375 37.34375-82.042969 82.976562-80.9335935 3.191407.0820315 6.339844.3398435 9.425782.7929685-38.3125 5.96875-62.632813 44.242188-52.238282 84.882813zm0 0" fill="#777575" data-original="#777575"/><path d="m246.703125 252.339844c0-39.421875 31.957031-71.382813 71.382813-71.382813 39.425781 0 71.382812 31.960938 71.382812 71.382813 0 60.433594-48.992188 109.425781-109.421875 109.425781-60.433594 0-109.425781-48.992187-109.425781-109.425781 0-21.007813 17.03125-38.039063 38.042968-38.039063 21.007813 0 38.039063 17.03125 38.039063 38.039063zm0 0" fill="#666" data-original="#666"/><path d="m381.570312 69.234375c0 13.925781-11.289062 25.214844-25.214843 25.214844s-25.214844-11.289063-25.214844-25.214844 11.289063-25.214844 25.214844-25.214844 25.214843 11.289063 25.214843 25.214844zm0 0" fill="#fff" data-original="#FFF"/><path d="m356.335938 81.09375c-10.53125 0-15.847657-13.421875-8.050782-20.582031 3.691406-3.386719 9.226563-4.082031 13.644532-1.738281 4.476562 2.371093 6.953124 7.496093 6.101562 12.484374-.960938 5.625-6.003906 9.835938-11.695312 9.835938zm0 0" fill="#4d4d4d" data-original="#4D4D4D" class="active-path" style="fill:#4D4D4D"/></g> </svg>
